<svg width="134" height="30" viewBox="0 0 134 30" fill="none" xmlns="http://www.w3.org/2000/svg">
<path fill-rule="evenodd" clip-rule="evenodd" d="M110.941 20.5962C110.941 21.0202 111.005 21.3821 111.164 21.6842C111.324 21.9564 111.483 22.1067 111.675 22.1067H78.5913C78.8147 22.1067 79.0068 21.9572 79.1349 21.6842C79.2928 21.412 79.3568 21.0509 79.3568 20.6277V9.34165C79.3568 8.94909 79.2928 8.6171 79.1349 8.34492C78.974 8.04283 78.7834 7.89179 78.56 7.89179H85.6738V18.9731H91.9908V9.34165C91.9908 8.94909 91.9267 8.6171 91.7673 8.34492C91.608 8.04283 91.4159 7.89179 91.1925 7.89179H98.3077V18.9731H104.625V9.34165C104.625 8.94909 104.559 8.6171 104.401 8.34492C104.24 8.04283 104.05 7.89179 103.826 7.89179H110.94L110.941 20.5962ZM133.491 21.5953C133.331 21.2633 133.267 20.9006 133.267 20.5081V10.8544C133.267 10.0693 132.948 9.37385 132.374 8.80035C131.767 8.19617 131.034 7.89409 130.173 7.89409H114.093L113.263 11.0951C113.454 10.895 113.596 10.7823 113.698 10.7072C114.007 10.4823 114.381 10.3642 114.762 10.3706H125.482C125.865 10.3706 126.216 10.5216 126.503 10.793C126.791 11.0652 126.95 11.3972 126.95 11.7898V11.9676H116.709C115.751 11.9676 114.955 12.2966 114.283 12.9912C113.645 13.656 113.263 14.5009 113.263 15.4976V19.1487C113.263 19.9637 113.581 20.6591 114.187 21.2334C114.794 21.8069 115.528 22.1059 116.39 22.1059H134C133.81 22.1051 133.651 21.9587 133.491 21.5953ZM121.081 18.9708C120.665 18.9708 120.315 18.8359 120.028 18.5637C119.74 18.2915 119.581 17.9595 119.581 17.567L119.548 16.5373C119.548 16.1439 119.709 15.8119 119.997 15.5405C120.278 15.266 120.656 15.1142 121.048 15.1181H126.951V18.97L121.081 18.9708ZM53.267 8.78961C52.6608 8.18544 51.9273 7.89102 51.0657 7.89102H41.4847V0H35.1654V7.89102H25.6613C24.7998 7.89102 24.0663 8.18544 23.4601 8.75971C22.854 9.33398 22.5353 10.0286 22.5353 10.8436V19.1548C22.5353 19.9691 22.854 20.6645 23.4601 21.2388C24.0663 21.8123 24.7998 22.1059 25.6613 22.1059H35.1684V30H41.4831V22.1059H51.0657C51.8739 22.1142 52.653 21.8028 53.2349 21.2388C53.8411 20.6645 54.1606 19.9698 54.1606 19.1548V10.8436C54.1606 10.0585 53.8411 9.36311 53.267 8.78961ZM29.2983 18.5737C29.0108 18.3022 28.8515 17.9702 28.8515 17.5769V12.512C28.8515 12.1187 28.9788 11.7875 29.2663 11.5153C29.5478 11.2402 29.9259 11.0881 30.3184 11.0921H35.1677V18.9808H30.3505C29.9357 18.9808 29.585 18.8458 29.2983 18.5737ZM47.8428 17.5486C47.8428 17.9419 47.6835 18.2731 47.4288 18.5461C47.1414 18.8175 46.7906 18.9815 46.3759 18.9815H41.487V11.0898H46.3446C46.7312 11.0894 47.1049 11.229 47.3975 11.4831C47.6842 11.7553 47.8436 12.0873 47.8436 12.4798L47.8428 17.5486ZM62.9639 17.1345L70.3026 7.89026H76.6493V20.5939C76.6493 21.0179 76.7133 21.3791 76.8727 21.6819C77.0321 21.9541 77.1914 22.1044 77.3836 22.1044H69.5668C69.7902 22.1044 69.9435 21.9342 70.1089 21.6819C70.356 21.307 70.3339 20.7695 70.3339 20.561V12.7635L62.9311 22.1044H55.8814C56.1048 22.1044 56.2962 21.9549 56.4243 21.6819C56.5837 21.4097 56.6469 21.0478 56.6469 20.6254V9.33935C56.6469 8.94679 56.5837 8.61403 56.4243 8.34262C56.2642 8.04053 56.0728 7.88949 55.8502 7.88949H62.9647L62.9639 17.1345ZM20.2265 21.5953C20.0672 21.2633 20.0039 20.9006 20.0039 20.5081V10.8429C20.0039 10.0585 19.6852 9.36311 19.1111 8.78961C18.5049 8.18544 17.7714 7.88336 16.9098 7.88336H0.829556L0 11.0852C0.191377 10.885 0.33167 10.7723 0.434602 10.6972C0.743974 10.4724 1.11737 10.3543 1.499 10.3606H12.2192C12.6019 10.3606 12.9527 10.5117 13.2401 10.7838C13.5268 11.0553 13.6862 11.3987 13.6862 11.7905V11.9684H3.44556C2.48867 11.9684 1.69114 12.2973 1.02093 12.992C0.382755 13.6567 0 14.5016 0 15.4984V19.1495C0 19.9645 0.319471 20.6599 0.925627 21.2342C1.53102 21.8077 2.26527 22.1067 3.12685 22.1067H20.7366C20.5452 22.1051 20.3866 21.9587 20.2265 21.5953ZM7.81597 18.9708C7.40196 18.9708 7.05047 18.8359 6.76302 18.5637C6.47633 18.2915 6.31698 17.9595 6.31698 17.567L6.28496 16.5373C6.28496 16.1439 6.44431 15.8119 6.73176 15.5405C7.01362 15.2661 7.39163 15.1143 7.78395 15.1181H13.6862V18.97L7.81597 18.9708Z" fill="#8A9293"/>
</svg>
