<svg width="54" height="28" viewBox="0 0 54 28" fill="none" xmlns="http://www.w3.org/2000/svg">
<g clip-path="url(#clip0_5293_5243)">
<path d="M53.8212 22.4049C49.6224 15.137 45.4343 7.86395 41.257 0.580535C41.0371 0.202646 40.8065 0.00593713 40.3239 0.0111137C37.219 0.0318199 34.1195 0.0369965 31.0147 0.0111137C30.5213 0.0111137 30.2854 0.202646 30.0816 0.580535C29.5185 1.62102 28.9233 2.64598 28.3495 3.67612C25.9954 7.87948 23.6198 12.0673 21.0029 16.1206C19.4425 18.538 17.2385 19.7027 14.2194 19.475C10.7017 19.211 7.85955 16.1257 8.21347 12.8076C8.56203 9.56186 12.0905 6.95805 15.5011 7.42912C17.4262 7.69313 19.11 8.47478 20.4881 9.78445C21.0727 10.3383 21.2872 10.1934 21.6464 9.5981C22.6063 8.00372 23.6145 6.43522 24.6494 4.88743C25.0141 4.33872 25.0087 4.02812 24.451 3.58811C18.3914 -1.2002 10.707 -1.24161 4.83512 3.73823C0.845448 7.1237 -0.865177 11.4254 0.421814 16.5554C2.46491 24.6929 12.112 28.6271 19.8554 26.0751C24.3974 24.5739 27.5183 21.4679 29.8296 17.5389C31.6421 14.4537 33.3741 11.3271 35.1545 8.22113C35.2832 7.99337 35.3422 7.69312 35.7229 7.55336C37.2941 10.5247 38.8546 13.4857 40.4204 16.4519L40.0826 16.7159C38.8868 15.4787 37.6802 14.2518 36.5058 12.9939C36.1197 12.585 35.9374 12.616 35.6425 13.0819C34.4359 14.9921 33.2133 16.8867 31.9531 18.7658C31.6206 19.2627 31.7064 19.475 32.1998 19.7856C36.3932 22.4308 40.5706 25.0967 44.7426 27.7782C45.1555 28.0422 45.4611 28.0888 45.9062 27.8248C48.448 26.3184 51.0059 24.8327 53.5745 23.3781C54.0893 23.0882 54.084 22.8604 53.8212 22.4049Z" fill="#8A9293"/>
</g>
<defs>
<clipPath id="clip0_5293_5243">
<rect width="54" height="28" fill="white"/>
</clipPath>
</defs>
</svg>
