<svg width="24" height="24" viewBox="0 0 24 24" fill="none" xmlns="http://www.w3.org/2000/svg">
<path d="M2 13.6C6 4.8 18 4.8 22 13.6M12 18C11.5623 18 11.1288 17.9146 10.7244 17.7488C10.32 17.583 9.95251 17.3399 9.64298 17.0335C9.33345 16.727 9.08792 16.3632 8.9204 15.9629C8.75289 15.5625 8.66667 15.1334 8.66667 14.7C8.66667 14.2666 8.75289 13.8375 8.9204 13.4371C9.08792 13.0368 9.33345 12.673 9.64298 12.3665C9.95251 12.0601 10.32 11.817 10.7244 11.6512C11.1288 11.4854 11.5623 11.4 12 11.4C12.8841 11.4 13.7319 11.7477 14.357 12.3665C14.9821 12.9854 15.3333 13.8248 15.3333 14.7C15.3333 15.5752 14.9821 16.4146 14.357 17.0335C13.7319 17.6523 12.8841 18 12 18Z" stroke="url(#paint0_linear_4850_86488)" stroke-width="2" stroke-linecap="round" stroke-linejoin="round"/>
<defs>
<linearGradient id="paint0_linear_4850_86488" x1="7.78231" y1="8.33784" x2="24.6043" y2="14.0601" gradientUnits="userSpaceOnUse">
<stop stop-color="#0A6E60"/>
<stop offset="0.727804" stop-color="#00A68F"/>
</linearGradient>
</defs>
</svg>
