<svg width="48" height="48" viewBox="0 0 48 48" fill="none" xmlns="http://www.w3.org/2000/svg">
<rect width="48" height="48" rx="24" fill="white"/>
<path d="M22.6884 29.0111C20.6227 28.8063 18.7603 28.3227 17.1657 27.1371C16.9678 26.9896 16.7635 26.8474 16.583 26.6826C15.885 26.0454 15.8147 25.3156 16.367 24.5635C16.8394 23.9199 17.6325 23.7477 18.4569 24.1172C18.6165 24.1889 18.7686 24.2783 18.9143 24.3743C21.8861 26.3155 25.9685 26.3691 28.9515 24.4616C29.247 24.2462 29.5629 24.0705 29.929 23.9809C30.6409 23.8071 31.3048 24.0557 31.6869 24.6478C32.1233 25.3241 32.1178 25.9841 31.58 26.5091C30.7551 27.314 29.763 27.8964 28.6607 28.3028C27.6184 28.687 26.4767 28.8804 25.3468 29.0088C25.5173 29.1852 25.5977 29.2719 25.7043 29.3738C27.2386 30.8393 28.7796 32.2987 30.3089 33.7687C30.8299 34.2696 30.9387 34.8906 30.6518 35.4732C30.3382 36.1099 29.636 36.5288 28.9476 36.484C28.5114 36.4553 28.1712 36.2489 27.869 35.9595C26.7111 34.8519 25.5315 33.7647 24.3971 32.6361C24.067 32.308 23.9082 32.37 23.6168 32.655C22.452 33.7949 21.2682 34.9174 20.0774 36.0335C19.5428 36.5347 18.9065 36.6249 18.2864 36.3386C17.6272 36.0348 17.2078 35.3952 17.2402 34.7524C17.2625 34.3176 17.4874 33.9854 17.8014 33.6875C19.3198 32.2462 20.834 30.8011 22.3488 29.3574C22.449 29.2613 22.5424 29.1594 22.6884 29.0111Z" fill="url(#paint0_linear_4387_7561)"/>
<path d="M23.9467 24.3216C20.2616 24.3096 17.2399 21.4054 17.2614 17.8966C17.2826 14.3491 20.3063 11.4903 24.0276 11.5001C27.7565 11.5097 30.7495 14.4096 30.7308 17.994C30.7118 21.4956 27.6692 24.3338 23.9467 24.3216ZM27.2958 17.9051C27.2894 16.1629 25.8298 14.776 24.0008 14.7744C22.1565 14.7725 20.6839 16.1847 20.6981 17.9428C20.7118 19.6784 22.1838 21.0555 24.0179 21.0491C25.8463 21.043 27.3019 19.6471 27.2958 17.9051Z" fill="url(#paint1_linear_4387_7561)"/>
<defs>
<linearGradient id="paint0_linear_4387_7561" x1="20.6259" y1="14.5405" x2="35.4284" y2="16.313" gradientUnits="userSpaceOnUse">
<stop stop-color="#0A6E60"/>
<stop offset="0.727804" stop-color="#00A68F"/>
</linearGradient>
<linearGradient id="paint1_linear_4387_7561" x1="20.6259" y1="14.5405" x2="35.4284" y2="16.313" gradientUnits="userSpaceOnUse">
<stop stop-color="#0A6E60"/>
<stop offset="0.727804" stop-color="#00A68F"/>
</linearGradient>
</defs>
</svg>
