<svg width="48" height="48" viewBox="0 0 48 48" fill="none" xmlns="http://www.w3.org/2000/svg">
<rect width="48" height="48" rx="24" fill="white"/>
<path fill-rule="evenodd" clip-rule="evenodd" d="M12.7874 22.4709C19.7667 19.3661 24.4206 17.3193 26.7493 16.3304C33.398 13.5069 34.7795 13.0164 35.68 13.0002C35.878 12.9966 36.3208 13.0467 36.6077 13.2844C36.8499 13.485 36.9165 13.7561 36.9484 13.9464C36.9803 14.1366 37.02 14.57 36.9884 14.9087C36.6281 18.7739 35.0692 28.1538 34.276 32.483C33.9404 34.3148 33.2796 34.929 32.6399 34.9891C31.2496 35.1197 30.1938 34.051 28.8473 33.1497C26.7401 31.7394 25.5498 30.8615 23.5044 29.4853C21.1407 27.8949 22.673 27.0208 24.0201 25.5922C24.3726 25.2184 30.4983 19.5294 30.6169 19.0134C30.6317 18.9488 30.6455 18.7082 30.5055 18.5812C30.3655 18.4541 30.1589 18.4976 30.0098 18.5321C29.7985 18.5811 26.4323 20.8528 19.9113 25.3472C18.9559 26.0171 18.0904 26.3435 17.315 26.3264C16.4602 26.3075 14.8159 25.8329 13.5935 25.4272C12.0942 24.9296 10.9025 24.6665 11.0063 23.8214C11.0603 23.3812 11.654 22.931 12.7874 22.4709Z" fill="url(#paint0_linear_4387_7569)"/>
<defs>
<linearGradient id="paint0_linear_4387_7569" x1="18.517" y1="15.6757" x2="41.7789" y2="20.819" gradientUnits="userSpaceOnUse">
<stop stop-color="#0A6E60"/>
<stop offset="0.727804" stop-color="#00A68F"/>
</linearGradient>
</defs>
</svg>
