<svg width="48" height="48" viewBox="0 0 48 48" fill="none" xmlns="http://www.w3.org/2000/svg">
<rect width="48" height="48" rx="24" fill="white"/>
<path d="M36.7827 28.4793C36.173 27.7559 35.4803 27.1076 34.8103 26.4805C34.572 26.2575 34.3257 26.027 34.0883 25.7977C33.4066 25.1388 33.3818 24.8913 33.9215 24.1429C34.2949 23.627 34.6908 23.1104 35.0737 22.6108C35.421 22.1576 35.7801 21.6889 36.1243 21.2186L36.195 21.1219C36.8529 20.2221 37.5333 19.2915 37.8954 18.169C37.9894 17.8729 38.0881 17.4371 37.8624 17.0727C37.6368 16.7086 37.1992 16.5975 36.8896 16.5456C36.7364 16.5199 36.5844 16.5164 36.4433 16.5164L32.1349 16.5134L32.0993 16.5131C31.4479 16.5131 31.0089 16.8165 30.7573 17.4409C30.5172 18.0375 30.2534 18.6727 29.9523 19.2768C29.3533 20.4796 28.5924 21.8649 27.4914 23.0204L27.4449 23.0695C27.3149 23.2076 27.1676 23.364 27.0599 23.364C27.0434 23.364 27.0255 23.3609 27.0051 23.3546C26.7771 23.2667 26.624 22.721 26.6309 22.4671C26.631 22.4636 26.6311 22.4601 26.6311 22.4566L26.6281 17.534C26.6281 17.5169 26.6269 17.5 26.6246 17.4831C26.515 16.6829 26.2723 16.1848 25.355 16.0072C25.3306 16.0024 25.3057 16 25.2809 16H20.8011C20.0712 16 19.669 16.2933 19.291 16.7322C19.189 16.8495 18.9766 17.0938 19.0818 17.3901C19.1887 17.6908 19.5354 17.7551 19.6483 17.776C20.2088 17.8814 20.5247 18.2203 20.6142 18.8125C20.7704 19.8407 20.7896 20.9382 20.6746 22.2665C20.6425 22.6356 20.5791 22.9207 20.4746 23.1643C20.4503 23.2211 20.3642 23.4066 20.2764 23.4067C20.2485 23.4067 20.1678 23.3959 20.0209 23.2958C19.6734 23.0604 19.4191 22.7246 19.1227 22.3097C18.1143 20.9009 17.268 19.3489 16.535 17.564C16.2632 16.907 15.7555 16.5391 15.1049 16.5283C14.39 16.5176 13.7418 16.5124 13.1236 16.5124C12.4482 16.5124 11.822 16.5185 11.2105 16.5311C10.687 16.5403 10.3249 16.6954 10.1344 16.9925C9.94359 17.2899 9.956 17.6805 10.1713 18.1534C11.8951 21.9417 13.458 24.6962 15.2391 27.0849C16.4872 28.7564 17.7389 29.9133 19.1782 30.7256C20.6945 31.5831 22.3937 32 24.3729 32C24.5973 32 24.8293 31.9946 25.0632 31.9838C26.2132 31.9284 26.6399 31.5169 26.6938 30.4099C26.7195 29.8442 26.7821 29.2509 27.0634 28.7449C27.241 28.4262 27.4065 28.4262 27.4609 28.4262C27.5657 28.4262 27.6957 28.4739 27.8353 28.5632C28.0856 28.7248 28.3002 28.9411 28.4762 29.1302C28.6418 29.3097 28.8056 29.4911 28.9695 29.6726C29.3233 30.0643 29.6891 30.4693 30.0712 30.8533C30.9075 31.6946 31.8289 32.0645 32.8872 31.9842H36.8372C36.8456 31.9842 36.8541 31.9839 36.8625 31.9834C37.2561 31.9577 37.597 31.7419 37.7978 31.3912C38.0465 30.9569 38.0415 30.4028 37.7844 29.9086C37.4927 29.3498 37.1142 28.8724 36.7827 28.4793Z" fill="url(#paint0_linear_4387_7551)"/>
<defs>
<linearGradient id="paint0_linear_4387_7551" x1="18.0952" y1="17.9459" x2="41.8272" y2="25.7159" gradientUnits="userSpaceOnUse">
<stop stop-color="#0A6E60"/>
<stop offset="0.727804" stop-color="#00A68F"/>
</linearGradient>
</defs>
</svg>
