<svg width="48" height="48" viewBox="0 0 48 48" fill="none" xmlns="http://www.w3.org/2000/svg">
<rect width="48" height="48" rx="24" fill="white"/>
<path d="M32.3417 30.728H30.7819V29.796C30.7819 29.4019 31.1705 29.0091 31.5592 29.0091H31.6935C32.0874 29.0091 32.4799 29.4019 32.4799 29.796V30.728H32.3417ZM26.3411 28.7455C25.9524 28.7455 25.5585 29.0091 25.5585 29.4019V33.8903C25.5585 34.2831 25.8259 34.5494 26.3411 34.5494C26.7336 34.5494 27.1262 34.2831 27.1262 33.8903V29.2767C27.1236 29.0091 26.7336 28.7455 26.3411 28.7455ZM36 26.2409V34.8051C36 36.9195 34.1715 38.5 32.0835 38.5H15.91C13.8233 38.5 12 36.7864 12 34.8051V26.2409C12 24.1331 13.6968 22.5474 15.91 22.5474H31.9557C34.1715 22.5474 36 24.1345 36 26.2409ZM17.0864 35.7371V26.7616H19.044V25.454H13.6968V26.7616H15.3909V35.8557L17.0864 35.7371ZM22.9566 28.0916H21.3877V34.0129C21.3877 34.2818 21.1307 34.4097 20.8699 34.4097C20.7382 34.4097 20.476 34.2818 20.476 33.889V27.9493H18.7806V34.2818C18.7806 34.6746 18.7806 35.1993 19.1731 35.4669C19.9583 35.9915 21.3877 35.3403 21.6524 34.5481V35.596H22.9566V28.0916ZM28.3013 33.4935V29.5364C28.3013 27.9506 27.1262 27.0331 25.6955 28.3474V25.3169H23.9974V35.5974H25.3029L25.4385 34.9449C27.2644 36.6519 28.3013 35.4682 28.3013 33.4935ZM33.5142 32.9636H32.223V33.8903C32.223 34.2831 31.9557 34.5494 31.5592 34.5494H31.3009C30.9071 34.5494 30.6567 34.2831 30.6567 33.8903V32.0435H33.5142V28.8852C33.2625 27.4299 31.3009 27.1597 30.2641 27.9545C29.9993 28.2208 29.732 28.4884 29.612 28.8852C29.4777 29.2806 29.342 29.796 29.342 30.5909V32.9636C29.342 37.0447 33.9067 36.5293 33.5142 32.9636ZM27.1236 20.0441C27.2631 20.3117 27.3857 20.4396 27.5187 20.5701C27.6544 20.7072 27.9113 20.7072 28.1722 20.7072C28.4382 20.7072 28.5608 20.5701 28.8295 20.4396C28.956 20.3117 29.2207 20.0441 29.3459 19.7831V20.4396H31.1731V12.5331H29.7333V18.726C29.7333 19.1227 29.4829 19.3877 29.089 19.3877C28.6964 19.3877 28.4395 19.1227 28.4395 18.726V12.6636H26.8771V19.3877C26.9984 19.6474 26.9984 19.7831 27.1236 20.0441ZM21.5194 15.5663C21.5194 14.7754 21.5194 14.2481 21.6537 13.7195C21.7802 13.324 22.0463 12.9299 22.3045 12.6676C22.6854 12.3972 23.1422 12.2581 23.6074 12.2708C23.9987 12.2708 24.3874 12.4 24.6547 12.5345C24.9116 12.6676 25.1712 12.9299 25.3042 13.1909C25.4398 13.4585 25.5585 13.7195 25.6968 13.9858C25.6968 14.2481 25.8298 14.6449 25.8298 15.3013V17.4091C25.8298 18.2026 25.8298 18.726 25.6968 18.9935C25.6968 19.3877 25.5611 19.6474 25.3042 19.9136C25.1552 20.1914 24.9296 20.4195 24.6547 20.5701C24.3297 20.7368 23.9718 20.8274 23.6074 20.835C23.2188 20.835 22.8262 20.835 22.5641 20.7045C22.3045 20.5688 22.0463 20.437 21.912 20.1786C21.7593 19.88 21.6289 19.5702 21.522 19.2519C21.389 18.8578 21.389 18.3292 21.389 17.674L21.5194 15.5663ZM22.9566 18.726C22.9566 19.1227 23.3492 19.5208 23.7405 19.5208C24.133 19.5208 24.5178 19.1227 24.5178 18.726V14.5065C24.5178 14.1097 24.133 13.7169 23.7405 13.7169C23.3492 13.7169 22.9566 14.1097 22.9566 14.5065V18.726ZM17.8702 20.8364H19.5657V14.774L21.6524 9.5H19.6922L18.6528 13.4559L17.4777 9.5H15.6531L17.8702 14.774V20.8364Z" fill="url(#paint0_linear_4387_7556)"/>
<defs>
<linearGradient id="paint0_linear_4387_7556" x1="18.9388" y1="13.027" x2="40.9337" y2="16.4326" gradientUnits="userSpaceOnUse">
<stop stop-color="#0A6E60"/>
<stop offset="0.727804" stop-color="#00A68F"/>
</linearGradient>
</defs>
</svg>
